/* XPM */
static char * hide_active_xpm[] = {
"22 26 113 2",
"  	c #202020",
". 	c #5C5C5C",
"+ 	c #4A4A4A",
"@ 	c #484848",
"# 	c #464646",
"$ 	c #444444",
"% 	c #424242",
"& 	c #404040",
"* 	c #313131",
"= 	c #272727",
"- 	c #222222",
"; 	c #3E3E3E",
"> 	c #3A3A3A",
", 	c #212D1E",
"' 	c #2A431F",
") 	c #406430",
"! 	c #406230",
"~ 	c #29421E",
"{ 	c #202D1D",
"] 	c #3C3C3C",
"^ 	c #262626",
"/ 	c #20351B",
"( 	c #5F903E",
"_ 	c #90B860",
": 	c #B2C9A2",
"< 	c #B1C9A2",
"[ 	c #8EB75D",
"} 	c #5C8F3C",
"| 	c #20341A",
"1 	c #3B3B3B",
"2 	c #2E2E2E",
"3 	c #22301E",
"4 	c #517B37",
"5 	c #7DB24A",
"6 	c #85C352",
"7 	c #82C355",
"8 	c #86C453",
"9 	c #537D37",
"0 	c #21301E",
"a 	c #383838",
"b 	c #252525",
"c 	c #2E4F1F",
"d 	c #588939",
"e 	c #6BA63E",
"f 	c #71B145",
"g 	c #74B444",
"h 	c #75B644",
"i 	c #72AD45",
"j 	c #68A43E",
"k 	c #588A38",
"l 	c #2F501E",
"m 	c #373737",
"n 	c #363636",
"o 	c #212121",
"p 	c #497630",
"q 	c #599636",
"r 	c #62A438",
"s 	c #6AAC3C",
"t 	c #6DAD41",
"u 	c #70AD41",
"v 	c #6CAB3D",
"w 	c #63A238",
"x 	c #5B9238",
"y 	c #487432",
"z 	c #353535",
"A 	c #343434",
"B 	c #517D37",
"C 	c #62A836",
"D 	c #6EB23A",
"E 	c #74B93B",
"F 	c #7ABD3D",
"G 	c #74B73D",
"H 	c #6BAF3D",
"I 	c #548036",
"J 	c #333333",
"K 	c #323232",
"L 	c #242424",
"M 	c #496834",
"N 	c #69AB3B",
"O 	c #78BC3A",
"P 	c #82C444",
"Q 	c #8EC64E",
"R 	c #8CC650",
"S 	c #84C244",
"T 	c #496933",
"U 	c #303030",
"V 	c #292929",
"W 	c #313F27",
"X 	c #72AB3F",
"Y 	c #81BE42",
"Z 	c #94C852",
"` 	c #99C85B",
" .	c #9CC75E",
"..	c #73AC40",
"+.	c #232323",
"@.	c #425630",
"#.	c #82B448",
"$.	c #9BC357",
"%.	c #A2CA64",
"&.	c #A2CB63",
"*.	c #95C258",
"=.	c #84B747",
"-.	c #425731",
";.	c #2D2D2D",
">.	c #2C2C2C",
",.	c #2A2A2A",
"'.	c #37432D",
").	c #617B43",
"!.	c #83A454",
"~.	c #83A355",
"{.	c #5F7A42",
"].	c #37442C",
"^.	c #282828",
"                                            ",
". . . . . . . . . . . . . . . . . . . . . . ",
"+ + + + + + + + + + + + + + + + + + + + + + ",
"@ @ @ @ @ @ @ @ @ @ @ @ @ @ @ @ @ @ @ @ @ @ ",
"# # # # # # # # # # # # # # # # # # # # # # ",
"$ $ $ $ $ $ $ $ $ $ $ $ $ $ $ $ $ $ $ $ $ $ ",
"% % % % % % % % % % % % % % % % % % % % % % ",
"& & & & & & & & * = - - = * & & & & & & & & ",
"; ; ; ; ; ; > = , ' ) ! ~ { = > ; ; ; ; ; ; ",
"] ] ] ] ] ] ^ / ( _ : < [ } | ^ 1 ] ] ] ] ] ",
"> > > > > 2 3 4 5 6 7 7 8 5 9 0 2 > > > > > ",
"a a a a a b c d e f g h i j k l b m a a a a ",
"n n n n n o p q r s t u v w x y o z n n n n ",
"A A A A A o B C D E F F G H C I o J A A A A ",
"K K K K K L M N O P Q R S E N T L * K K K K ",
"U U U U U V W X Y Z `  .Z Y ..W V U U U U U ",
"2 2 2 2 2 2 +.@.#.$.%.&.*.=.-.+.;.2 2 2 2 2 ",
">.>.>.>.>.>.,.+.'.).!.~.{.].+.,.>.>.>.>.>.>.",
",.,.,.,.,.,.,.V b - o o - b V ,.,.,.,.,.,.,.",
"^.^.^.^.^.^.^.^.^.= = = = ^.^.^.^.^.^.^.^.^.",
"^ ^ ^ ^ ^ ^ ^ ^ ^ ^ ^ ^ ^ ^ ^ ^ ^ ^ ^ ^ ^ ^ ",
"L L L L L L L L L L L L L L L L L L L L L L ",
"- - - - - - - - - - - - - - - - - - - - - - ",
"                                            ",
">.>.>.>.>.>.>.>.>.>.>.>.>.>.>.>.>.>.>.>.>.>.",
"                                            "};
