/* XPM */
static char * maximize_prelight_xpm[] = {
"22 26 114 2",
"  	c #202020",
". 	c #5C5C5C",
"+ 	c #4A4A4A",
"@ 	c #484848",
"# 	c #464646",
"$ 	c #444444",
"% 	c #424242",
"& 	c #404040",
"* 	c #313131",
"= 	c #272727",
"- 	c #222222",
"; 	c #3E3E3E",
"> 	c #3A3A3A",
", 	c #503232",
"' 	c #884F49",
") 	c #B26E63",
"! 	c #B26E62",
"~ 	c #503332",
"{ 	c #3C3C3C",
"] 	c #262626",
"^ 	c #6C3E3B",
"/ 	c #DF9477",
"( 	c #F2C8A5",
"_ 	c #F3D2C4",
": 	c #F0D2C5",
"< 	c #F4C7A5",
"[ 	c #DF9578",
"} 	c #6C3F3B",
"| 	c #3B3B3B",
"1 	c #2E2E2E",
"2 	c #543532",
"3 	c #D57C63",
"4 	c #F2B894",
"5 	c #F4BF99",
"6 	c #F5BA96",
"7 	c #F4BC98",
"8 	c #F5BE99",
"9 	c #F0B794",
"0 	c #D67D64",
"a 	c #543432",
"b 	c #383838",
"c 	c #252525",
"d 	c #9B5146",
"e 	c #E58268",
"f 	c #EE9779",
"g 	c #F2A582",
"h 	c #F3AB89",
"i 	c #F5AC89",
"j 	c #F2A384",
"k 	c #EE9879",
"l 	c #E68268",
"m 	c #373737",
"n 	c #363636",
"o 	c #212121",
"p 	c #C76E59",
"q 	c #EC8768",
"r 	c #F29270",
"s 	c #F59B78",
"t 	c #F5A37F",
"u 	c #F19372",
"v 	c #C76F5A",
"w 	c #353535",
"x 	c #343434",
"y 	c #CE7D61",
"z 	c #EE956F",
"A 	c #F6A37A",
"B 	c #F9AC81",
"C 	c #FBAE86",
"D 	c #FAAD85",
"E 	c #F8AC80",
"F 	c #F6A379",
"G 	c #F0956F",
"H 	c #333333",
"I 	c #323232",
"J 	c #242424",
"K 	c #A76E55",
"L 	c #F39F76",
"M 	c #F8AC82",
"N 	c #FBBC8E",
"O 	c #FBC196",
"P 	c #FCBF94",
"Q 	c #FBBA8E",
"R 	c #F8AF82",
"S 	c #F1A276",
"T 	c #A86F56",
"U 	c #303030",
"V 	c #292929",
"W 	c #5F4638",
"X 	c #ECA679",
"Y 	c #F8B586",
"Z 	c #FBC396",
"` 	c #FBCCA1",
" .	c #FCCBA2",
"..	c #FCC395",
"+.	c #F7B986",
"@.	c #604638",
"#.	c #232323",
"$.	c #85644B",
"%.	c #EDB583",
"&.	c #F5C192",
"*.	c #F7CBA0",
"=.	c #F8CB9F",
"-.	c #F5C191",
";.	c #EEB584",
">.	c #85644A",
",.	c #2D2D2D",
"'.	c #2C2C2C",
").	c #2A2A2A",
"!.	c #624B3C",
"~.	c #B18962",
"{.	c #DCB082",
"].	c #DDB183",
"^.	c #B28963",
"/.	c #282828",
"                                            ",
". . . . . . . . . . . . . . . . . . . . . . ",
"+ + + + + + + + + + + + + + + + + + + + + + ",
"@ @ @ @ @ @ @ @ @ @ @ @ @ @ @ @ @ @ @ @ @ @ ",
"# # # # # # # # # # # # # # # # # # # # # # ",
"$ $ $ $ $ $ $ $ $ $ $ $ $ $ $ $ $ $ $ $ $ $ ",
"% % % % % % % % % % % % % % % % % % % % % % ",
"& & & & & & & & * = - - = * & & & & & & & & ",
"; ; ; ; ; ; > = , ' ) ! ' ~ = > ; ; ; ; ; ; ",
"{ { { { { { ] ^ / ( _ : < [ } ] | { { { { { ",
"> > > > > 1 2 3 4 5 6 7 8 9 0 a 1 > > > > > ",
"b b b b b c d e f g h i j k l d c m b b b b ",
"n n n n n o p q r s t t s u q v o w n n n n ",
"x x x x x o y z A B C D E F G y o H x x x x ",
"I I I I I J K L M N O P Q R S T J * I I I I ",
"U U U U U V W X Y Z `  ...+.X @.V U U U U U ",
"1 1 1 1 1 1 #.$.%.&.*.=.-.;.>.#.,.1 1 1 1 1 ",
"'.'.'.'.'.'.).#.!.~.{.].^.!.#.).'.'.'.'.'.'.",
").).).).).).).V c - o o - c V ).).).).).).).",
"/././././././././.= = = = /././././././././.",
"] ] ] ] ] ] ] ] ] ] ] ] ] ] ] ] ] ] ] ] ] ] ",
"J J J J J J J J J J J J J J J J J J J J J J ",
"- - - - - - - - - - - - - - - - - - - - - - ",
"                                            ",
"'.'.'.'.'.'.'.'.'.'.'.'.'.'.'.'.'.'.'.'.'.'.",
"                                            "};
