/* XPM */
static char * menu_pressed_xpm[] = {
"22 26 111 2",
"  	c #202020",
". 	c #5C5C5C",
"+ 	c #4A4A4A",
"@ 	c #484848",
"# 	c #464646",
"$ 	c #444444",
"% 	c #424242",
"& 	c #404040",
"* 	c #313131",
"= 	c #272727",
"- 	c #222222",
"; 	c #3E3E3E",
"> 	c #3A3A3A",
", 	c #1A1C28",
"' 	c #1C253F",
") 	c #2B385B",
"! 	c #2A385A",
"~ 	c #1B243F",
"{ 	c #1A1C29",
"] 	c #3C3C3C",
"^ 	c #262626",
"/ 	c #181E31",
"( 	c #475E85",
"_ 	c #7791AA",
": 	c #8992A6",
"< 	c #748FA9",
"[ 	c #435B85",
"} 	c #3B3B3B",
"| 	c #2E2E2E",
"1 	c #1A1D2C",
"2 	c #314873",
"3 	c #607EA1",
"4 	c #6480A6",
"5 	c #617BA4",
"6 	c #6480A7",
"7 	c #314975",
"8 	c #1A1D2D",
"9 	c #383838",
"0 	c #252525",
"a 	c #1B2849",
"b 	c #375182",
"c 	c #436090",
"d 	c #4F6997",
"e 	c #526D9A",
"f 	c #526E9B",
"g 	c #4D6996",
"h 	c #435F8E",
"i 	c #374F82",
"j 	c #1A294A",
"k 	c #373737",
"l 	c #363636",
"m 	c #212121",
"n 	c #293E6C",
"o 	c #36518A",
"p 	c #3E5A91",
"q 	c #416094",
"r 	c #496497",
"s 	c #496696",
"t 	c #426294",
"u 	c #3E5B8F",
"v 	c #365289",
"w 	c #2A3C6B",
"x 	c #353535",
"y 	c #343434",
"z 	c #314575",
"A 	c #3D5992",
"B 	c #44659A",
"C 	c #496B9C",
"D 	c #4E709E",
"E 	c #446399",
"F 	c #3C5993",
"G 	c #304775",
"H 	c #333333",
"I 	c #323232",
"J 	c #242424",
"K 	c #2D4060",
"L 	c #415E94",
"M 	c #496E9E",
"N 	c #5678A4",
"O 	c #5D80A5",
"P 	c #5E80A5",
"Q 	c #5579A4",
"R 	c #2D4062",
"S 	c #303030",
"T 	c #292929",
"U 	c #242E3B",
"V 	c #436591",
"W 	c #52779F",
"X 	c #6084A5",
"Y 	c #6D8DAB",
"Z 	c #6F90AA",
"` 	c #52769F",
" .	c #466592",
"..	c #232F3C",
"+.	c #232323",
"@.	c #2D3C51",
"#.	c #527497",
"$.	c #6389A4",
"%.	c #7090A8",
"&.	c #6385A4",
"*.	c #2D3D52",
"=.	c #2D2D2D",
"-.	c #2C2C2C",
";.	c #2A2A2A",
">.	c #283440",
",.	c #40586F",
"'.	c #57758D",
").	c #58748C",
"!.	c #3F566F",
"~.	c #293340",
"{.	c #282828",
"                                            ",
". . . . . . . . . . . . . . . . . . . . . . ",
"+ + + + + + + + + + + + + + + + + + + + + + ",
"@ @ @ @ @ @ @ @ @ @ @ @ @ @ @ @ @ @ @ @ @ @ ",
"# # # # # # # # # # # # # # # # # # # # # # ",
"$ $ $ $ $ $ $ $ $ $ $ $ $ $ $ $ $ $ $ $ $ $ ",
"% % % % % % % % % % % % % % % % % % % % % % ",
"& & & & & & & & * = - - = * & & & & & & & & ",
"; ; ; ; ; ; > = , ' ) ! ~ { = > ; ; ; ; ; ; ",
"] ] ] ] ] ] ^ / ( _ : : < [ / ^ } ] ] ] ] ] ",
"> > > > > | 1 2 3 4 5 5 6 3 7 8 | > > > > > ",
"9 9 9 9 9 0 a b c d e f g h i j 0 k 9 9 9 9 ",
"l l l l l m n o p q r s t u v w m x l l l l ",
"y y y y y m z A B C D D C E F G m H y y y y ",
"I I I I I J K L M N O P Q C L R J * I I I I ",
"S S S S S T U V W X Y Z X `  ...T S S S S S ",
"| | | | | | +.@.#.$.%.Z &.#.*.+.=.| | | | | ",
"-.-.-.-.-.-.;.+.>.,.'.).!.~.+.;.-.-.-.-.-.-.",
";.;.;.;.;.;.;.T 0 - m m - 0 T ;.;.;.;.;.;.;.",
"{.{.{.{.{.{.{.{.{.= = = = {.{.{.{.{.{.{.{.{.",
"^ ^ ^ ^ ^ ^ ^ ^ ^ ^ ^ ^ ^ ^ ^ ^ ^ ^ ^ ^ ^ ^ ",
"J J J J J J J J J J J J J J J J J J J J J J ",
"- - - - - - - - - - - - - - - - - - - - - - ",
"                                            ",
"-.-.-.-.-.-.-.-.-.-.-.-.-.-.-.-.-.-.-.-.-.-.",
"                                            "};
