/* XPM */
static char * maximize_active_xpm[] = {
"22 26 118 2",
"  	c #202020",
". 	c #5C5C5C",
"+ 	c #4A4A4A",
"@ 	c #484848",
"# 	c #464646",
"$ 	c #444444",
"% 	c #424242",
"& 	c #404040",
"* 	c #313131",
"= 	c #272727",
"- 	c #222222",
"; 	c #3E3E3E",
"> 	c #3A3A3A",
", 	c #3D1C1C",
"' 	c #66201B",
") 	c #933B2C",
"! 	c #933A2C",
"~ 	c #3D1D1C",
"{ 	c #3C3C3C",
"] 	c #262626",
"^ 	c #501B18",
"/ 	c #C7643F",
"( 	c #DDA075",
"_ 	c #E4BBA9",
": 	c #E1BBAA",
"< 	c #DFA077",
"[ 	c #C76541",
"} 	c #501C18",
"| 	c #3B3B3B",
"1 	c #2E2E2E",
"2 	c #401F1C",
"3 	c #BE4A2A",
"4 	c #D8855A",
"5 	c #DF9768",
"6 	c #E69A6C",
"7 	c #E59E6E",
"8 	c #E09767",
"9 	c #D7845A",
"0 	c #BF4B2B",
"a 	c #401E1C",
"b 	c #383838",
"c 	c #252525",
"d 	c #7D2317",
"e 	c #D2512F",
"f 	c #DE6D46",
"g 	c #E38052",
"h 	c #E4875B",
"i 	c #E6895B",
"j 	c #E37E54",
"k 	c #DE6E46",
"l 	c #D4522F",
"m 	c #7E2217",
"n 	c #373737",
"o 	c #363636",
"p 	c #212121",
"q 	c #AE3B20",
"r 	c #DC582F",
"s 	c #E3673C",
"t 	c #E6794A",
"u 	c #E88250",
"v 	c #E88150",
"w 	c #E67A4A",
"x 	c #E2693E",
"y 	c #AE3C21",
"z 	c #353535",
"A 	c #343434",
"B 	c #B64E2A",
"C 	c #DF6B39",
"D 	c #E97C48",
"E 	c #ED8851",
"F 	c #EF8C56",
"G 	c #EE8B55",
"H 	c #EC8750",
"I 	c #E97C46",
"J 	c #E16B39",
"K 	c #333333",
"L 	c #323232",
"M 	c #242424",
"N 	c #8B4729",
"O 	c #E47842",
"P 	c #EA8952",
"Q 	c #ED955D",
"R 	c #ED9B63",
"S 	c #EE9B63",
"T 	c #ED965C",
"U 	c #EA8B51",
"V 	c #E27A42",
"W 	c #8D482A",
"X 	c #303030",
"Y 	c #292929",
"Z 	c #4C3222",
"` 	c #DB8147",
" .	c #E79254",
"..	c #EC9E64",
"+.	c #EBA56C",
"@.	c #ECA46D",
"#.	c #EC9E63",
"$.	c #E79654",
"%.	c #4D3222",
"&.	c #232323",
"*.	c #6C4629",
"=.	c #DD9353",
"-.	c #E39D63",
";.	c #E6AA72",
">.	c #E7AA71",
",.	c #E49D62",
"'.	c #DD9454",
").	c #6C4628",
"!.	c #2D2D2D",
"~.	c #2C2C2C",
"{.	c #2A2A2A",
"].	c #503726",
"^.	c #986738",
"/.	c #C89055",
"(.	c #C99156",
"_.	c #996839",
":.	c #503826",
"<.	c #282828",
"                                            ",
". . . . . . . . . . . . . . . . . . . . . . ",
"+ + + + + + + + + + + + + + + + + + + + + + ",
"@ @ @ @ @ @ @ @ @ @ @ @ @ @ @ @ @ @ @ @ @ @ ",
"# # # # # # # # # # # # # # # # # # # # # # ",
"$ $ $ $ $ $ $ $ $ $ $ $ $ $ $ $ $ $ $ $ $ $ ",
"% % % % % % % % % % % % % % % % % % % % % % ",
"& & & & & & & & * = - - = * & & & & & & & & ",
"; ; ; ; ; ; > = , ' ) ! ' ~ = > ; ; ; ; ; ; ",
"{ { { { { { ] ^ / ( _ : < [ } ] | { { { { { ",
"> > > > > 1 2 3 4 5 6 7 8 9 0 a 1 > > > > > ",
"b b b b b c d e f g h i j k l m c n b b b b ",
"o o o o o p q r s t u v w x r y p z o o o o ",
"A A A A A p B C D E F G H I J B p K A A A A ",
"L L L L L M N O P Q R S T U V W M * L L L L ",
"X X X X X Y Z `  ...+.@.#.$.` %.Y X X X X X ",
"1 1 1 1 1 1 &.*.=.-.;.>.,.'.).&.!.1 1 1 1 1 ",
"~.~.~.~.~.~.{.&.].^./.(._.:.&.{.~.~.~.~.~.~.",
"{.{.{.{.{.{.{.Y c - p p - c Y {.{.{.{.{.{.{.",
"<.<.<.<.<.<.<.<.<.= = = = <.<.<.<.<.<.<.<.<.",
"] ] ] ] ] ] ] ] ] ] ] ] ] ] ] ] ] ] ] ] ] ] ",
"M M M M M M M M M M M M M M M M M M M M M M ",
"- - - - - - - - - - - - - - - - - - - - - - ",
"                                            ",
"~.~.~.~.~.~.~.~.~.~.~.~.~.~.~.~.~.~.~.~.~.~.",
"                                            "};
