/* XPM */
static char * maximize_toggled_prelight_xpm[] = {
"22 26 113 2",
"  	c #202020",
". 	c #5C5C5C",
"+ 	c #4A4A4A",
"@ 	c #484848",
"# 	c #464646",
"$ 	c #444444",
"% 	c #424242",
"& 	c #404040",
"* 	c #313131",
"= 	c #272727",
"- 	c #222222",
"; 	c #3E3E3E",
"> 	c #3A3A3A",
", 	c #4C3E32",
"' 	c #7B6248",
") 	c #98845F",
"! 	c #97835E",
"~ 	c #4C3D32",
"{ 	c #3C3C3C",
"] 	c #262626",
"^ 	c #644E3B",
"/ 	c #C3AD65",
"( 	c #DFDD7C",
"_ 	c #E4DCAD",
": 	c #E4DDAE",
"< 	c #E0DD7D",
"[ 	c #C4AF65",
"} 	c #644F3B",
"| 	c #3B3B3B",
"1 	c #2E2E2E",
"2 	c #4F3F33",
"3 	c #AF9961",
"4 	c #E0D56C",
"5 	c #E2D972",
"6 	c #E3D470",
"7 	c #E3D771",
"8 	c #E4DA71",
"9 	c #E0D46B",
"0 	c #B09962",
"a 	c #514033",
"b 	c #383838",
"c 	c #252525",
"d 	c #896B46",
"e 	c #C2A35E",
"f 	c #D9BB5E",
"g 	c #E1C761",
"h 	c #E3C962",
"i 	c #E4CD62",
"j 	c #E1C461",
"k 	c #D9BB5F",
"l 	c #C4A55D",
"m 	c #373737",
"n 	c #363636",
"o 	c #212121",
"p 	c #A68C58",
"q 	c #CCAC59",
"r 	c #D9BA59",
"s 	c #E1C359",
"t 	c #E5C959",
"u 	c #DABB59",
"v 	c #A78C58",
"w 	c #353535",
"x 	c #343434",
"y 	c #AA9760",
"z 	c #D4BC59",
"A 	c #E4CC59",
"B 	c #EAD459",
"C 	c #ECD55D",
"D 	c #EBD55C",
"E 	c #E3CB59",
"F 	c #D7BE59",
"G 	c #AA9860",
"H 	c #333333",
"I 	c #323232",
"J 	c #242424",
"K 	c #938353",
"L 	c #DFC759",
"M 	c #E8D25B",
"N 	c #ECE062",
"O 	c #EDE26B",
"P 	c #ECE16B",
"Q 	c #ECDD62",
"R 	c #E8D65B",
"S 	c #DCC85A",
"T 	c #948453",
"U 	c #303030",
"V 	c #292929",
"W 	c #5B5237",
"X 	c #D6C95E",
"Y 	c #EADE5D",
"Z 	c #ECE56B",
"` 	c #ECEB74",
" .	c #EDE974",
"..	c #E8E05F",
"+.	c #D5C95F",
"@.	c #232323",
"#.	c #797248",
"$.	c #DAD663",
"%.	c #E6E269",
"&.	c #EAE871",
"*.	c #EAE971",
"=.	c #DDD962",
"-.	c #7A7348",
";.	c #2D2D2D",
">.	c #2C2C2C",
",.	c #2A2A2A",
"'.	c #5D573B",
").	c #9F9B5C",
"!.	c #C8CA69",
"~.	c #C8C969",
"{.	c #9F9B5D",
"].	c #5D583B",
"^.	c #282828",
"                                            ",
". . . . . . . . . . . . . . . . . . . . . . ",
"+ + + + + + + + + + + + + + + + + + + + + + ",
"@ @ @ @ @ @ @ @ @ @ @ @ @ @ @ @ @ @ @ @ @ @ ",
"# # # # # # # # # # # # # # # # # # # # # # ",
"$ $ $ $ $ $ $ $ $ $ $ $ $ $ $ $ $ $ $ $ $ $ ",
"% % % % % % % % % % % % % % % % % % % % % % ",
"& & & & & & & & * = - - = * & & & & & & & & ",
"; ; ; ; ; ; > = , ' ) ! ' ~ = > ; ; ; ; ; ; ",
"{ { { { { { ] ^ / ( _ : < [ } ] | { { { { { ",
"> > > > > 1 2 3 4 5 6 7 8 9 0 a 1 > > > > > ",
"b b b b b c d e f g h i j k l d c m b b b b ",
"n n n n n o p q r s t t s u q v o w n n n n ",
"x x x x x o y z A B C D B E F G o H x x x x ",
"I I I I I J K L M N O P Q R S T J * I I I I ",
"U U U U U V W X Y Z `  .Z ..+.W V U U U U U ",
"1 1 1 1 1 1 @.#.$.%.&.*.%.=.-.@.;.1 1 1 1 1 ",
">.>.>.>.>.>.,.@.'.).!.~.{.].@.,.>.>.>.>.>.>.",
",.,.,.,.,.,.,.V c - o o - c V ,.,.,.,.,.,.,.",
"^.^.^.^.^.^.^.^.^.= = = = ^.^.^.^.^.^.^.^.^.",
"] ] ] ] ] ] ] ] ] ] ] ] ] ] ] ] ] ] ] ] ] ] ",
"J J J J J J J J J J J J J J J J J J J J J J ",
"- - - - - - - - - - - - - - - - - - - - - - ",
"                                            ",
">.>.>.>.>.>.>.>.>.>.>.>.>.>.>.>.>.>.>.>.>.>.",
"                                            "};
