/* XPM */
static char * menu_active_xpm[] = {
"22 26 116 2",
"  	c #202020",
". 	c #5C5C5C",
"+ 	c #4A4A4A",
"@ 	c #484848",
"# 	c #464646",
"$ 	c #444444",
"% 	c #424242",
"& 	c #404040",
"* 	c #313131",
"= 	c #272727",
"- 	c #222222",
"; 	c #3E3E3E",
"> 	c #3A3A3A",
", 	c #272728",
"' 	c #212531",
") 	c #273351",
"! 	c #394976",
"~ 	c #394A75",
"{ 	c #273252",
"] 	c #212633",
"^ 	c #3C3C3C",
"/ 	c #262626",
"( 	c #1F263D",
"_ 	c #556FA1",
": 	c #82A0C1",
"< 	c #AFBAD0",
"[ 	c #AEB9D0",
"} 	c #7E9DBF",
"| 	c #536EA0",
"1 	c #20273E",
"2 	c #3B3B3B",
"3 	c #2E2E2E",
"4 	c #1E2231",
"5 	c #415E93",
"6 	c #7397C5",
"7 	c #7EA1D1",
"8 	c #7FA1D6",
"9 	c #7EA1D2",
"0 	c #405E96",
"a 	c #1E2232",
"b 	c #383838",
"c 	c #252525",
"d 	c #22325A",
"e 	c #4969AA",
"f 	c #597EBC",
"g 	c #678AC6",
"h 	c #6B8EC9",
"i 	c #6C8FCA",
"j 	c #658AC5",
"k 	c #597CBA",
"l 	c #4867AA",
"m 	c #21335B",
"n 	c #373737",
"o 	c #363636",
"p 	c #212121",
"q 	c #36518C",
"r 	c #4769B5",
"s 	c #5176BD",
"t 	c #577DC3",
"u 	c #5F83C6",
"v 	c #5F86C5",
"w 	c #5880C2",
"x 	c #5178BB",
"y 	c #476BB3",
"z 	c #374F8B",
"A 	c #353535",
"B 	c #343434",
"C 	c #415A98",
"D 	c #5174BE",
"E 	c #5A84C9",
"F 	c #618DCD",
"G 	c #6693CF",
"H 	c #618CCB",
"I 	c #5A81C8",
"J 	c #5074BF",
"K 	c #405D99",
"L 	c #333333",
"M 	c #323232",
"N 	c #242424",
"O 	c #385076",
"P 	c #557BC2",
"Q 	c #6290CE",
"R 	c #6E9AD2",
"S 	c #79A6D8",
"T 	c #7AA6D8",
"U 	c #6D9BD1",
"V 	c #375078",
"W 	c #303030",
"X 	c #292929",
"Y 	c #293342",
"Z 	c #5984BD",
"` 	c #6A9BCF",
" .	c #78A6D3",
"..	c #83ADD7",
"+.	c #85AED5",
"@.	c #6A99CF",
"#.	c #5C85BE",
"$.	c #283443",
"%.	c #232323",
"&.	c #34465E",
"*.	c #6D98C5",
"=.	c #7AABD0",
"-.	c #8BB2D6",
";.	c #89B2D7",
">.	c #79A7CF",
",.	c #344760",
"'.	c #2D2D2D",
").	c #2C2C2C",
"!.	c #2A2A2A",
"~.	c #2D3A47",
"{.	c #506D88",
"].	c #6F94B3",
"^.	c #7094B3",
"/.	c #4F6B88",
"(.	c #2E3947",
"_.	c #282828",
"                                            ",
". . . . . . . . . . . . . . . . . . . . . . ",
"+ + + + + + + + + + + + + + + + + + + + + + ",
"@ @ @ @ @ @ @ @ @ @ @ @ @ @ @ @ @ @ @ @ @ @ ",
"# # # # # # # # # # # # # # # # # # # # # # ",
"$ $ $ $ $ $ $ $ $ $ $ $ $ $ $ $ $ $ $ $ $ $ ",
"% % % % % % % % % % % % % % % % % % % % % % ",
"& & & & & & & & * = - - = * & & & & & & & & ",
"; ; ; ; ; ; > , ' ) ! ~ { ] , > ; ; ; ; ; ; ",
"^ ^ ^ ^ ^ ^ / ( _ : < [ } | 1 / 2 ^ ^ ^ ^ ^ ",
"> > > > > 3 4 5 6 7 8 8 9 6 0 a 3 > > > > > ",
"b b b b b c d e f g h i j k l m c n b b b b ",
"o o o o o p q r s t u v w x y z p A o o o o ",
"B B B B B p C D E F G G H I J K p L B B B B ",
"M M M M M N O P Q R S T U F P V N * M M M M ",
"W W W W W X Y Z `  ...+. .@.#.$.X W W W W W ",
"3 3 3 3 3 3 %.&.*.=.-.;.>.*.,.%.'.3 3 3 3 3 ",
").).).).).).!.%.~.{.].^./.(.%.!.).).).).).).",
"!.!.!.!.!.!.!.X c - p p - c X !.!.!.!.!.!.!.",
"_._._._._._._._._.= = = = _._._._._._._._._.",
"/ / / / / / / / / / / / / / / / / / / / / / ",
"N N N N N N N N N N N N N N N N N N N N N N ",
"- - - - - - - - - - - - - - - - - - - - - - ",
"                                            ",
").).).).).).).).).).).).).).).).).).).).).).",
"                                            "};
