/* XPM */
static char * maximize_pressed_xpm[] = {
"22 26 114 2",
"  	c #202020",
". 	c #5C5C5C",
"+ 	c #4A4A4A",
"@ 	c #484848",
"# 	c #464646",
"$ 	c #444444",
"% 	c #424242",
"& 	c #404040",
"* 	c #313131",
"= 	c #272727",
"- 	c #222222",
"; 	c #3E3E3E",
"> 	c #3A3A3A",
", 	c #361919",
"' 	c #531915",
") 	c #712D22",
"! 	c #712C21",
"~ 	c #361A19",
"{ 	c #3C3C3C",
"] 	c #262626",
"^ 	c #441613",
"/ 	c #9C5133",
"( 	c #B28661",
"_ 	c #B79382",
": 	c #B69383",
"< 	c #B48663",
"[ 	c #9C5234",
"} 	c #441713",
"| 	c #3B3B3B",
"1 	c #2E2E2E",
"2 	c #391B19",
"3 	c #923820",
"4 	c #AE7451",
"5 	c #AF7C55",
"6 	c #B07652",
"7 	c #AF7853",
"8 	c #B07B54",
"9 	c #AD7351",
"0 	c #933920",
"a 	c #391A19",
"b 	c #383838",
"c 	c #252525",
"d 	c #661C12",
"e 	c #A13E24",
"f 	c #AB5235",
"g 	c #AE623F",
"h 	c #AE6645",
"i 	c #B06845",
"j 	c #AE6040",
"k 	c #AB5335",
"l 	c #A33F24",
"m 	c #661B12",
"n 	c #373737",
"o 	c #363636",
"p 	c #212121",
"q 	c #862D18",
"r 	c #A84224",
"s 	c #AE4E2C",
"t 	c #B05834",
"u 	c #B2603B",
"v 	c #AE502E",
"w 	c #862E19",
"x 	c #353535",
"y 	c #343434",
"z 	c #8D3C1F",
"A 	c #AB522B",
"B 	c #B35F37",
"C 	c #B6673D",
"D 	c #B76B41",
"E 	c #B66A41",
"F 	c #B5673C",
"G 	c #B35F35",
"H 	c #AD522B",
"I 	c #333333",
"J 	c #323232",
"K 	c #242424",
"L 	c #723921",
"M 	c #AE5B32",
"N 	c #B5683F",
"O 	c #B77749",
"P 	c #B77D52",
"Q 	c #B87C51",
"R 	c #B77649",
"S 	c #B56B3F",
"T 	c #AE5D32",
"U 	c #733A22",
"V 	c #303030",
"W 	c #292929",
"X 	c #452D1D",
"Y 	c #A76336",
"Z 	c #B57241",
"` 	c #B77F52",
" .	c #B7895C",
"..	c #B8875D",
"+.	c #B87F52",
"@.	c #B47541",
"#.	c #462D1D",
"$.	c #232323",
"%.	c #5D3C22",
"&.	c #AA7140",
"*.	c #B27D4E",
"=.	c #B4875C",
"-.	c #B5875B",
";.	c #B27D4D",
">.	c #AB7240",
",.	c #2D2D2D",
"'.	c #2C2C2C",
").	c #2A2A2A",
"!.	c #493221",
"~.	c #7C542D",
"{.	c #9B6F41",
"].	c #9C7042",
"^.	c #7D542E",
"/.	c #282828",
"                                            ",
". . . . . . . . . . . . . . . . . . . . . . ",
"+ + + + + + + + + + + + + + + + + + + + + + ",
"@ @ @ @ @ @ @ @ @ @ @ @ @ @ @ @ @ @ @ @ @ @ ",
"# # # # # # # # # # # # # # # # # # # # # # ",
"$ $ $ $ $ $ $ $ $ $ $ $ $ $ $ $ $ $ $ $ $ $ ",
"% % % % % % % % % % % % % % % % % % % % % % ",
"& & & & & & & & * = - - = * & & & & & & & & ",
"; ; ; ; ; ; > = , ' ) ! ' ~ = > ; ; ; ; ; ; ",
"{ { { { { { ] ^ / ( _ : < [ } ] | { { { { { ",
"> > > > > 1 2 3 4 5 6 7 8 9 0 a 1 > > > > > ",
"b b b b b c d e f g h i j k l m c n b b b b ",
"o o o o o p q r s t u u t v r w p x o o o o ",
"y y y y y p z A B C D E F G H z p I y y y y ",
"J J J J J K L M N O P Q R S T U K * J J J J ",
"V V V V V W X Y Z `  ...+.@.Y #.W V V V V V ",
"1 1 1 1 1 1 $.%.&.*.=.-.;.>.%.$.,.1 1 1 1 1 ",
"'.'.'.'.'.'.).$.!.~.{.].^.!.$.).'.'.'.'.'.'.",
").).).).).).).W c - p p - c W ).).).).).).).",
"/././././././././.= = = = /././././././././.",
"] ] ] ] ] ] ] ] ] ] ] ] ] ] ] ] ] ] ] ] ] ] ",
"K K K K K K K K K K K K K K K K K K K K K K ",
"- - - - - - - - - - - - - - - - - - - - - - ",
"                                            ",
"'.'.'.'.'.'.'.'.'.'.'.'.'.'.'.'.'.'.'.'.'.'.",
"                                            "};
