/* XPM */
static char * maximize_toggled_active_xpm[] = {
"22 26 110 2",
"  	c #202020",
". 	c #5C5C5C",
"+ 	c #4A4A4A",
"@ 	c #484848",
"# 	c #464646",
"$ 	c #444444",
"% 	c #424242",
"& 	c #404040",
"* 	c #313131",
"= 	c #272727",
"- 	c #222222",
"; 	c #3E3E3E",
"> 	c #3A3A3A",
", 	c #39281D",
"' 	c #53381D",
") 	c #6B562D",
"! 	c #6A552C",
"~ 	c #39271D",
"{ 	c #3C3C3C",
"] 	c #262626",
"^ 	c #452D19",
"/ 	c #977F31",
"( 	c #B7B34F",
"_ 	c #CCC590",
": 	c #CCC592",
"< 	c #B9B250",
"[ 	c #998031",
"} 	c #44301A",
"| 	c #3B3B3B",
"1 	c #2E2E2E",
"2 	c #3C2A1E",
"3 	c #846B2F",
"4 	c #B2A33C",
"5 	c #BEB346",
"6 	c #C4B346",
"7 	c #C4B748",
"8 	c #C1B545",
"9 	c #B2A33A",
"0 	c #3E2B1E",
"a 	c #383838",
"b 	c #252525",
"c 	c #65451B",
"d 	c #9C7B2C",
"e 	c #B8962E",
"f 	c #C1A433",
"g 	c #C3A735",
"h 	c #C4AB36",
"i 	c #C2A234",
"j 	c #B69530",
"k 	c #9F7D2B",
"l 	c #373737",
"m 	c #363636",
"n 	c #212121",
"o 	c #7A5F26",
"p 	c #A88528",
"q 	c #B79429",
"r 	c #C2A02A",
"s 	c #C6A72C",
"t 	c #B99629",
"u 	c #7C6126",
"v 	c #353535",
"w 	c #343434",
"x 	c #816D2F",
"y 	c #B0952A",
"z 	c #C6AA2A",
"A 	c #CCB42C",
"B 	c #CEB630",
"C 	c #CDB52F",
"D 	c #CCB32A",
"E 	c #C4A92A",
"F 	c #B4992A",
"G 	c #333333",
"H 	c #323232",
"I 	c #242424",
"J 	c #6F5F2B",
"K 	c #BFA429",
"L 	c #CBB32D",
"M 	c #CEC236",
"N 	c #D1C541",
"O 	c #CFC341",
"P 	c #CEBE36",
"Q 	c #CBB72D",
"R 	c #BBA52B",
"S 	c #71602B",
"T 	c #303030",
"U 	c #292929",
"V 	c #463E22",
"W 	c #AFA12E",
"X 	c #CCBF30",
"Y 	c #CFC741",
"Z 	c #D0CE4C",
"` 	c #D2CD4C",
" .	c #CBC231",
"..	c #483E22",
"+.	c #232323",
"@.	c #5D5529",
"#.	c #B2AE32",
"$.	c #C8C33E",
"%.	c #CDCC49",
"&.	c #B6B131",
"*.	c #2D2D2D",
"=.	c #2C2C2C",
"-.	c #2A2A2A",
";.	c #4A4326",
">.	c #7F7B35",
",.	c #A7A93D",
"'.	c #A6A73D",
").	c #7F7A35",
"!.	c #4A4426",
"~.	c #282828",
"                                            ",
". . . . . . . . . . . . . . . . . . . . . . ",
"+ + + + + + + + + + + + + + + + + + + + + + ",
"@ @ @ @ @ @ @ @ @ @ @ @ @ @ @ @ @ @ @ @ @ @ ",
"# # # # # # # # # # # # # # # # # # # # # # ",
"$ $ $ $ $ $ $ $ $ $ $ $ $ $ $ $ $ $ $ $ $ $ ",
"% % % % % % % % % % % % % % % % % % % % % % ",
"& & & & & & & & * = - - = * & & & & & & & & ",
"; ; ; ; ; ; > = , ' ) ! ' ~ = > ; ; ; ; ; ; ",
"{ { { { { { ] ^ / ( _ : < [ } ] | { { { { { ",
"> > > > > 1 2 3 4 5 6 7 8 9 3 0 1 > > > > > ",
"a a a a a b c d e f g h i j k c b l a a a a ",
"m m m m m n o p q r s s r t p u n v m m m m ",
"w w w w w n x y z A B C D E F x n G w w w w ",
"H H H H H I J K L M N O P Q R S I * H H H H ",
"T T T T T U V W X Y Z ` Y  .W ..U T T T T T ",
"1 1 1 1 1 1 +.@.#.$.%.%.$.&.@.+.*.1 1 1 1 1 ",
"=.=.=.=.=.=.-.+.;.>.,.'.).!.+.-.=.=.=.=.=.=.",
"-.-.-.-.-.-.-.U b - n n - b U -.-.-.-.-.-.-.",
"~.~.~.~.~.~.~.~.~.= = = = ~.~.~.~.~.~.~.~.~.",
"] ] ] ] ] ] ] ] ] ] ] ] ] ] ] ] ] ] ] ] ] ] ",
"I I I I I I I I I I I I I I I I I I I I I I ",
"- - - - - - - - - - - - - - - - - - - - - - ",
"                                            ",
"=.=.=.=.=.=.=.=.=.=.=.=.=.=.=.=.=.=.=.=.=.=.",
"                                            "};
