/* XPM */
static char * title_1_inactive_xpm[] = {
"4 26 23 1",
" 	c #222222",
".	c #474747",
"+	c #373737",
"@	c #363636",
"#	c #353535",
"$	c #343434",
"%	c #333333",
"&	c #323232",
"*	c #313131",
"=	c #303030",
"-	c #2F2F2F",
";	c #2E2E2E",
">	c #2D2D2D",
",	c #2C2C2C",
"'	c #2B2B2B",
")	c #2A2A2A",
"!	c #292929",
"~	c #282828",
"{	c #272727",
"]	c #262626",
"^	c #252525",
"/	c #242424",
"(	c #232323",
"    ",
"....",
"++++",
"@@@@",
"####",
"$$$$",
"%%%%",
"&&&&",
"****",
"====",
"----",
";;;;",
">>>>",
",,,,",
"''''",
"))))",
"!!!!",
"~~~~",
"{{{{",
"]]]]",
"^^^^",
"////",
"((((",
"    ",
",,,,",
"    "};
