/* XPM */
static char * close_inactive_xpm[] = {
"22 26 70 1",
" 	c #222222",
".	c #474747",
"+	c #373737",
"@	c #363636",
"#	c #353535",
"$	c #343434",
"%	c #333333",
"&	c #323232",
"*	c #2A2A2A",
"=	c #242424",
"-	c #212121",
";	c #313131",
">	c #2F2F2F",
",	c #2D2D2D",
"'	c #3D3D3D",
")	c #595959",
"!	c #2E2E2E",
"~	c #303030",
"{	c #7F7F7F",
"]	c #9D9D9D",
"^	c #A9A9A9",
"/	c #AAAAAA",
"(	c #9E9E9E",
"_	c #282828",
":	c #6E6E6E",
"<	c #919191",
"[	c #989898",
"}	c #9B9B9B",
"|	c #999999",
"1	c #232323",
"2	c #434343",
"3	c #777777",
"4	c #898989",
"5	c #959595",
"6	c #787878",
"7	c #5F5F5F",
"8	c #7C7C7C",
"9	c #868686",
"0	c #8C8C8C",
"a	c #606060",
"b	c #2C2C2C",
"c	c #676767",
"d	c #838383",
"e	c #8F8F8F",
"f	c #949494",
"g	c #979797",
"h	c #969696",
"i	c #939393",
"j	c #848484",
"k	c #696969",
"l	c #2B2B2B",
"m	c #525252",
"n	c #8A8A8A",
"o	c #9C9C9C",
"p	c #A2A2A2",
"q	c #535353",
"r	c #252525",
"s	c #383838",
"t	c #878787",
"u	c #A3A3A3",
"v	c #A7A7A7",
"w	c #393939",
"x	c #292929",
"y	c #444444",
"z	c #8E8E8E",
"A	c #A5A5A5",
"B	c #A6A6A6",
"C	c #272727",
"D	c #3C3C3C",
"E	c #262626",
"                      ",
"......................",
"++++++++++++++++++++++",
"@@@@@@@@@@@@@@@@@@@@@@",
"######################",
"$$$$$$$$$$$$$$$$$$$$$$",
"%%%%%%%%%%%%%%%%%%%%%%",
"&&&&&&&&*=--=*&&&&&&&&",
";;;;;;>=,'))',=!;;;;;;",
"~~~~~~=>{]^/({>=>~~~~~",
">>>>>_>:<[}}|<:>_>>>>>",
"!!!!!1234<55<4621,!!!!",
",,,,,-7890<<098a-b,,,,",
"bbbbb-cdefghiejk-lbbbb",
"lllll1mn5oppo54q1*llll",
"*****rsthuv^u5twr*****",
"xxxxxx yz]AB]zy _xxxxx",
"______C Da9taD C______",
"CCCCCCCE= -- =ECCCCCCC",
"EEEEEEEEErrrrEEEEEEEEE",
"rrrrrrrrrrrrrrrrrrrrrr",
"======================",
"1111111111111111111111",
"                      ",
"bbbbbbbbbbbbbbbbbbbbbb",
"                      "};
