/* XPM */
static char * close_active_xpm[] = {
"22 26 119 2",
"  	c #202020",
". 	c #5C5C5C",
"+ 	c #4A4A4A",
"@ 	c #484848",
"# 	c #464646",
"$ 	c #444444",
"% 	c #424242",
"& 	c #404040",
"* 	c #313131",
"= 	c #272727",
"- 	c #222222",
"; 	c #3E3E3E",
"> 	c #3A3A3A",
", 	c #391C1C",
"' 	c #5E1F1F",
") 	c #863433",
"! 	c #863334",
"~ 	c #5C1F1F",
"{ 	c #371C1C",
"] 	c #3C3C3C",
"^ 	c #262626",
"/ 	c #4A1B1B",
"( 	c #C65351",
"_ 	c #E38A85",
": 	c #DEAAA3",
"< 	c #DDA9A2",
"[ 	c #E38885",
"} 	c #C45250",
"| 	c #461B1B",
"1 	c #3B3B3B",
"2 	c #2E2E2E",
"3 	c #3E1C1D",
"4 	c #B43636",
"5 	c #E1706A",
"6 	c #E6756F",
"7 	c #E5726D",
"8 	c #E57570",
"9 	c #E2716B",
"0 	c #B63636",
"a 	c #3B1C1C",
"b 	c #383838",
"c 	c #252525",
"d 	c #711D1F",
"e 	c #CE3433",
"f 	c #DF4644",
"g 	c #E45553",
"h 	c #E55C5A",
"i 	c #E65D5A",
"j 	c #E45653",
"k 	c #CC3332",
"l 	c #6D1A1B",
"m 	c #373737",
"n 	c #363636",
"o 	c #212121",
"p 	c #AB2425",
"q 	c #D82D2E",
"r 	c #E43C3C",
"s 	c #E84746",
"t 	c #EA4E4C",
"u 	c #EA4F4D",
"v 	c #E94947",
"w 	c #E44040",
"x 	c #D53031",
"y 	c #A82221",
"z 	c #353535",
"A 	c #343434",
"B 	c #B83131",
"C 	c #DE3D3E",
"D 	c #E84B4A",
"E 	c #EA5958",
"F 	c #EA615F",
"G 	c #EB6260",
"H 	c #EC5B59",
"I 	c #E74C4B",
"J 	c #DC3F3E",
"K 	c #B6302F",
"L 	c #333333",
"M 	c #323232",
"N 	c #242424",
"O 	c #8D3334",
"P 	c #DF4747",
"Q 	c #E85D5C",
"R 	c #E96564",
"S 	c #E96F6C",
"T 	c #EA706C",
"U 	c #E86765",
"V 	c #E75E5D",
"W 	c #DB4948",
"X 	c #892E2F",
"Y 	c #303030",
"Z 	c #292929",
"` 	c #4C2B2C",
" .	c #D95452",
"..	c #E66E6D",
"+.	c #E97A78",
"@.	c #E8807F",
"#.	c #E9817F",
"$.	c #E97A79",
"%.	c #E67070",
"&.	c #D75755",
"*.	c #492627",
"=.	c #232323",
"-.	c #6A3A3C",
";.	c #DB7575",
">.	c #E28584",
",.	c #E18D8E",
"'.	c #E28686",
").	c #DC7A78",
"!.	c #683737",
"~.	c #2D2D2D",
"{.	c #2C2C2C",
"].	c #2A2A2A",
"^.	c #4E3233",
"/.	c #965C5D",
"(.	c #C27778",
"_.	c #C27677",
":.	c #94595B",
"<.	c #4C2E2F",
"[.	c #282828",
"                                            ",
". . . . . . . . . . . . . . . . . . . . . . ",
"+ + + + + + + + + + + + + + + + + + + + + + ",
"@ @ @ @ @ @ @ @ @ @ @ @ @ @ @ @ @ @ @ @ @ @ ",
"# # # # # # # # # # # # # # # # # # # # # # ",
"$ $ $ $ $ $ $ $ $ $ $ $ $ $ $ $ $ $ $ $ $ $ ",
"% % % % % % % % % % % % % % % % % % % % % % ",
"& & & & & & & & * = - - = * & & & & & & & & ",
"; ; ; ; ; ; > = , ' ) ! ~ { = > ; ; ; ; ; ; ",
"] ] ] ] ] ] ^ / ( _ : < [ } | ^ 1 ] ] ] ] ] ",
"> > > > > 2 3 4 5 6 7 7 8 9 0 a 2 > > > > > ",
"b b b b b c d e f g h i j f k l c m b b b b ",
"n n n n n o p q r s t u v w x y o z n n n n ",
"A A A A A o B C D E F G H I J K o L A A A A ",
"M M M M M N O P Q R S T U V W X N * M M M M ",
"Y Y Y Y Y Z `  ...+.@.#.$.%.&.*.Z Y Y Y Y Y ",
"2 2 2 2 2 2 =.-.;.>.,.,.'.).!.=.~.2 2 2 2 2 ",
"{.{.{.{.{.{.].=.^./.(._.:.<.=.].{.{.{.{.{.{.",
"].].].].].].].Z c - o o - c Z ].].].].].].].",
"[.[.[.[.[.[.[.[.[.= = = = [.[.[.[.[.[.[.[.[.",
"^ ^ ^ ^ ^ ^ ^ ^ ^ ^ ^ ^ ^ ^ ^ ^ ^ ^ ^ ^ ^ ^ ",
"N N N N N N N N N N N N N N N N N N N N N N ",
"- - - - - - - - - - - - - - - - - - - - - - ",
"                                            ",
"{.{.{.{.{.{.{.{.{.{.{.{.{.{.{.{.{.{.{.{.{.{.",
"                                            "};
