/* XPM */
static char * close_pressed_xpm[] = {
"22 26 117 2",
"  	c #202020",
". 	c #5C5C5C",
"+ 	c #4A4A4A",
"@ 	c #484848",
"# 	c #464646",
"$ 	c #444444",
"% 	c #424242",
"& 	c #404040",
"* 	c #313131",
"= 	c #272727",
"- 	c #222222",
"; 	c #3E3E3E",
"> 	c #3A3A3A",
", 	c #331919",
"' 	c #4C1818",
") 	c #682726",
"! 	c #682627",
"~ 	c #4A1818",
"{ 	c #321919",
"] 	c #3C3C3C",
"^ 	c #262626",
"/ 	c #3F1616",
"( 	c #97403E",
"_ 	c #B26B67",
": 	c #B4847F",
"< 	c #B3837F",
"[ 	c #B26967",
"} 	c #953F3C",
"| 	c #3C1616",
"1 	c #3B3B3B",
"2 	c #2E2E2E",
"3 	c #36191A",
"4 	c #8A2929",
"5 	c #AD5552",
"6 	c #B05954",
"7 	c #AF5752",
"8 	c #AF5955",
"9 	c #AE5652",
"0 	c #8B2929",
"a 	c #341919",
"b 	c #383838",
"c 	c #252525",
"d 	c #5C1718",
"e 	c #9E2726",
"f 	c #AB3533",
"g 	c #AE4040",
"h 	c #AF4644",
"i 	c #B04744",
"j 	c #AE403F",
"k 	c #9C2625",
"l 	c #581415",
"m 	c #373737",
"n 	c #363636",
"o 	c #212121",
"p 	c #851B1C",
"q 	c #A72122",
"r 	c #AE2B2B",
"s 	c #B23332",
"t 	c #B33636",
"u 	c #B33737",
"v 	c #B02D2D",
"w 	c #A42424",
"x 	c #821919",
"y 	c #353535",
"z 	c #343434",
"A 	c #902222",
"B 	c #AE2829",
"C 	c #B23333",
"D 	c #B34140",
"E 	c #B34947",
"F 	c #B44948",
"G 	c #B54442",
"H 	c #AC2A29",
"I 	c #8E2220",
"J 	c #333333",
"K 	c #323232",
"L 	c #242424",
"M 	c #732929",
"N 	c #AE3333",
"O 	c #B34948",
"P 	c #B44D4B",
"Q 	c #B45754",
"R 	c #B65955",
"S 	c #B34F4C",
"T 	c #B44A49",
"U 	c #AC3534",
"V 	c #702525",
"W 	c #303030",
"X 	c #292929",
"Y 	c #452627",
"Z 	c #A84141",
"` 	c #B35958",
" .	c #B56361",
"..	c #B5716F",
"+.	c #B67371",
"@.	c #B56462",
"#.	c #B55B5B",
"$.	c #A54442",
"%.	c #422122",
"&.	c #232323",
"*.	c #5B3133",
"=.	c #A95E5E",
"-.	c #B26F6F",
";.	c #B57C7C",
">.	c #B27170",
",.	c #AA6260",
"'.	c #592F2F",
").	c #2D2D2D",
"!.	c #2C2C2C",
"~.	c #2A2A2A",
"{.	c #472D2E",
"].	c #784E4E",
"^.	c #9A6D6D",
"/.	c #996C6D",
"(.	c #764A4C",
"_.	c #45292A",
":.	c #282828",
"                                            ",
". . . . . . . . . . . . . . . . . . . . . . ",
"+ + + + + + + + + + + + + + + + + + + + + + ",
"@ @ @ @ @ @ @ @ @ @ @ @ @ @ @ @ @ @ @ @ @ @ ",
"# # # # # # # # # # # # # # # # # # # # # # ",
"$ $ $ $ $ $ $ $ $ $ $ $ $ $ $ $ $ $ $ $ $ $ ",
"% % % % % % % % % % % % % % % % % % % % % % ",
"& & & & & & & & * = - - = * & & & & & & & & ",
"; ; ; ; ; ; > = , ' ) ! ~ { = > ; ; ; ; ; ; ",
"] ] ] ] ] ] ^ / ( _ : < [ } | ^ 1 ] ] ] ] ] ",
"> > > > > 2 3 4 5 6 7 7 8 9 0 a 2 > > > > > ",
"b b b b b c d e f g h i j f k l c m b b b b ",
"n n n n n o p q r s t u s v w x o y n n n n ",
"z z z z z o A B C D E F G s H I o J z z z z ",
"K K K K K L M N O P Q R S T U V L * K K K K ",
"W W W W W X Y Z `  ...+.@.#.$.%.X W W W W W ",
"2 2 2 2 2 2 &.*.=.-.;.;.>.,.'.&.).2 2 2 2 2 ",
"!.!.!.!.!.!.~.&.{.].^./.(._.&.~.!.!.!.!.!.!.",
"~.~.~.~.~.~.~.X c - o o - c X ~.~.~.~.~.~.~.",
":.:.:.:.:.:.:.:.:.= = = = :.:.:.:.:.:.:.:.:.",
"^ ^ ^ ^ ^ ^ ^ ^ ^ ^ ^ ^ ^ ^ ^ ^ ^ ^ ^ ^ ^ ^ ",
"L L L L L L L L L L L L L L L L L L L L L L ",
"- - - - - - - - - - - - - - - - - - - - - - ",
"                                            ",
"!.!.!.!.!.!.!.!.!.!.!.!.!.!.!.!.!.!.!.!.!.!.",
"                                            "};
