/* XPM */
static char * hide_prelight_xpm[] = {
"22 26 115 2",
"  	c #202020",
". 	c #5C5C5C",
"+ 	c #4A4A4A",
"@ 	c #484848",
"# 	c #464646",
"$ 	c #444444",
"% 	c #424242",
"& 	c #404040",
"* 	c #313131",
"= 	c #272727",
"- 	c #222222",
"; 	c #3E3E3E",
"> 	c #3A3A3A",
", 	c #374234",
"' 	c #586E50",
") 	c #759268",
"! 	c #769168",
"~ 	c #576D4F",
"{ 	c #364233",
"] 	c #3C3C3C",
"^ 	c #262626",
"/ 	c #44563F",
"( 	c #99C07C",
"_ 	c #C8E19F",
": 	c #D1E2C3",
"< 	c #D0E2C3",
"[ 	c #C5E09E",
"} 	c #95BE79",
"| 	c #44553F",
"1 	c #3B3B3B",
"2 	c #2E2E2E",
"3 	c #384534",
"4 	c #86A870",
"5 	c #B5DD8D",
"6 	c #B6E390",
"7 	c #B1E08F",
"8 	c #B7E490",
"9 	c #B5DC8E",
"0 	c #87AA70",
"a 	c #374534",
"b 	c #383838",
"c 	c #252525",
"d 	c #5C7750",
"e 	c #8DB574",
"f 	c #9ACC77",
"g 	c #A3D380",
"h 	c #A3D580",
"i 	c #A4D681",
"j 	c #A3D17E",
"k 	c #99CA77",
"l 	c #8DB673",
"m 	c #5D784F",
"n 	c #373737",
"o 	c #363636",
"p 	c #212121",
"q 	c #7BA168",
"r 	c #8DBF71",
"s 	c #94CB72",
"t 	c #9AD175",
"u 	c #9DD379",
"v 	c #A0D379",
"w 	c #9CD175",
"x 	c #95C973",
"y 	c #8EBD71",
"z 	c #7B9F69",
"A 	c #353535",
"B 	c #343434",
"C 	c #83A86E",
"D 	c #93CD70",
"E 	c #9ED675",
"F 	c #A3DA79",
"G 	c #A9DA7D",
"H 	c #A3D97A",
"I 	c #9CD576",
"J 	c #84A96E",
"K 	c #333333",
"L 	c #323232",
"M 	c #242424",
"N 	c #728B5F",
"O 	c #99D174",
"P 	c #A7DB78",
"Q 	c #B1E082",
"R 	c #B9E28A",
"S 	c #B8E28A",
"T 	c #B3DF82",
"U 	c #728E5E",
"V 	c #303030",
"W 	c #292929",
"X 	c #46543E",
"Y 	c #A0CC77",
"Z 	c #B1DB7F",
"` 	c #BDE38C",
" .	c #C6E795",
"..	c #C8E798",
"+.	c #AEDB7F",
"@.	c #A1CD77",
"#.	c #232323",
"$.	c #627452",
"%.	c #ADD382",
"&.	c #C2E090",
"*.	c #C7E59A",
"=.	c #C8E599",
"-.	c #BEDE90",
";.	c #ADD481",
">.	c #627553",
",.	c #2D2D2D",
"'.	c #2C2C2C",
").	c #2A2A2A",
"!.	c #4B5842",
"~.	c #889E6D",
"{.	c #ACC687",
"].	c #ACC588",
"^.	c #869D6C",
"/.	c #4B5942",
"(.	c #282828",
"                                            ",
". . . . . . . . . . . . . . . . . . . . . . ",
"+ + + + + + + + + + + + + + + + + + + + + + ",
"@ @ @ @ @ @ @ @ @ @ @ @ @ @ @ @ @ @ @ @ @ @ ",
"# # # # # # # # # # # # # # # # # # # # # # ",
"$ $ $ $ $ $ $ $ $ $ $ $ $ $ $ $ $ $ $ $ $ $ ",
"% % % % % % % % % % % % % % % % % % % % % % ",
"& & & & & & & & * = - - = * & & & & & & & & ",
"; ; ; ; ; ; > = , ' ) ! ~ { = > ; ; ; ; ; ; ",
"] ] ] ] ] ] ^ / ( _ : < [ } | ^ 1 ] ] ] ] ] ",
"> > > > > 2 3 4 5 6 7 7 8 9 0 a 2 > > > > > ",
"b b b b b c d e f g h i j k l m c n b b b b ",
"o o o o o p q r s t u v w x y z p A o o o o ",
"B B B B B p C D E F G G H I D J p K B B B B ",
"L L L L L M N O P Q R S T F O U M * L L L L ",
"V V V V V W X Y Z `  ...` +.@.X W V V V V V ",
"2 2 2 2 2 2 #.$.%.&.*.=.-.;.>.#.,.2 2 2 2 2 ",
"'.'.'.'.'.'.).#.!.~.{.].^./.#.).'.'.'.'.'.'.",
").).).).).).).W c - p p - c W ).).).).).).).",
"(.(.(.(.(.(.(.(.(.= = = = (.(.(.(.(.(.(.(.(.",
"^ ^ ^ ^ ^ ^ ^ ^ ^ ^ ^ ^ ^ ^ ^ ^ ^ ^ ^ ^ ^ ^ ",
"M M M M M M M M M M M M M M M M M M M M M M ",
"- - - - - - - - - - - - - - - - - - - - - - ",
"                                            ",
"'.'.'.'.'.'.'.'.'.'.'.'.'.'.'.'.'.'.'.'.'.'.",
"                                            "};
