/* XPM */
static char * menu_prelight_xpm[] = {
"22 26 112 2",
"  	c #202020",
". 	c #5C5C5C",
"+ 	c #4A4A4A",
"@ 	c #484848",
"# 	c #464646",
"$ 	c #444444",
"% 	c #424242",
"& 	c #404040",
"* 	c #313131",
"= 	c #272727",
"- 	c #222222",
"; 	c #3E3E3E",
"> 	c #3A3A3A",
", 	c #343742",
"' 	c #515B74",
") 	c #6C799D",
"! 	c #6B799C",
"~ 	c #515974",
"{ 	c #343743",
"] 	c #3C3C3C",
"^ 	c #262626",
"/ 	c #404559",
"( 	c #8AA3C9",
"_ 	c #B3CDE6",
": 	c #CAD3E1",
"< 	c #B0CCE6",
"[ 	c #879FC9",
"} 	c #3B3B3B",
"| 	c #2E2E2E",
"1 	c #343845",
"2 	c #758BB6",
"3 	c #A3C2E5",
"4 	c #A8C4EB",
"5 	c #A4BEE7",
"6 	c #A8C4EC",
"7 	c #758DB9",
"8 	c #343846",
"9 	c #383838",
"0 	c #252525",
"a 	c #515D7E",
"b 	c #7B94C6",
"c 	c #87A3D4",
"d 	c #92ACDB",
"e 	c #95B1DD",
"f 	c #96B2DE",
"g 	c #91ACDA",
"h 	c #87A3D2",
"i 	c #7A92C6",
"j 	c #505D7F",
"k 	c #373737",
"l 	c #363636",
"m 	c #212121",
"n 	c #6A80AE",
"o 	c #7994CE",
"p 	c #829DD5",
"q 	c #86A3D9",
"r 	c #8CA8DB",
"s 	c #8CABDA",
"t 	c #87A5D9",
"u 	c #829FD3",
"v 	c #7995CC",
"w 	c #6B7EAD",
"x 	c #353535",
"y 	c #343434",
"z 	c #7387B7",
"A 	c #819CD5",
"B 	c #88A9DD",
"C 	c #8EAFE1",
"D 	c #92B4E3",
"E 	c #8EAEE0",
"F 	c #88A6DD",
"G 	c #809CD6",
"H 	c #7289B7",
"I 	c #333333",
"J 	c #323232",
"K 	c #242424",
"L 	c #627595",
"M 	c #85A3D9",
"N 	c #8EB3E3",
"O 	c #9ABCE7",
"P 	c #A2C4E9",
"Q 	c #A3C4E9",
"R 	c #99BDE7",
"S 	c #617597",
"T 	c #303030",
"U 	c #292929",
"V 	c #3F4756",
"W 	c #87A9D5",
"X 	c #95BBE3",
"Y 	c #A3C8EA",
"Z 	c #B1D1EE",
"` 	c #B4D4ED",
" .	c #95BAE3",
"..	c #8AAAD5",
"+.	c #3E4857",
"@.	c #232323",
"#.	c #546478",
"$.	c #97B8DB",
"%.	c #A7CCE7",
"&.	c #B4D4EC",
"*.	c #A6C9E7",
"=.	c #54647A",
"-.	c #2D2D2D",
";.	c #2C2C2C",
">.	c #2A2A2A",
",.	c #424D5B",
"'.	c #758DA3",
").	c #99B7CE",
"!.	c #9AB6CE",
"~.	c #748BA3",
"{.	c #434C5B",
"].	c #282828",
"                                            ",
". . . . . . . . . . . . . . . . . . . . . . ",
"+ + + + + + + + + + + + + + + + + + + + + + ",
"@ @ @ @ @ @ @ @ @ @ @ @ @ @ @ @ @ @ @ @ @ @ ",
"# # # # # # # # # # # # # # # # # # # # # # ",
"$ $ $ $ $ $ $ $ $ $ $ $ $ $ $ $ $ $ $ $ $ $ ",
"% % % % % % % % % % % % % % % % % % % % % % ",
"& & & & & & & & * = - - = * & & & & & & & & ",
"; ; ; ; ; ; > = , ' ) ! ~ { = > ; ; ; ; ; ; ",
"] ] ] ] ] ] ^ / ( _ : : < [ / ^ } ] ] ] ] ] ",
"> > > > > | 1 2 3 4 5 5 6 3 7 8 | > > > > > ",
"9 9 9 9 9 0 a b c d e f g h i j 0 k 9 9 9 9 ",
"l l l l l m n o p q r s t u v w m x l l l l ",
"y y y y y m z A B C D D E F G H m I y y y y ",
"J J J J J K L M N O P Q R C M S K * J J J J ",
"T T T T T U V W X Y Z ` Y  ...+.U T T T T T ",
"| | | | | | @.#.$.%.&.` *.$.=.@.-.| | | | | ",
";.;.;.;.;.;.>.@.,.'.).!.~.{.@.>.;.;.;.;.;.;.",
">.>.>.>.>.>.>.U 0 - m m - 0 U >.>.>.>.>.>.>.",
"].].].].].].].].].= = = = ].].].].].].].].].",
"^ ^ ^ ^ ^ ^ ^ ^ ^ ^ ^ ^ ^ ^ ^ ^ ^ ^ ^ ^ ^ ^ ",
"K K K K K K K K K K K K K K K K K K K K K K ",
"- - - - - - - - - - - - - - - - - - - - - - ",
"                                            ",
";.;.;.;.;.;.;.;.;.;.;.;.;.;.;.;.;.;.;.;.;.;.",
"                                            "};
